<?xml version="1.0" encoding="utf-8"?>
<!-- Generator: Adobe Illustrator 27.2.0, SVG Export Plug-In . SVG Version: 6.00 Build 0)  -->
<svg version="1.1" id="Layer_1" xmlns="http://www.w3.org/2000/svg" xmlns:xlink="http://www.w3.org/1999/xlink" x="0px" y="0px"
	 viewBox="0 0 53.7 87.8" style="enable-background:new 0 0 53.7 87.8;" xml:space="preserve">
<style type="text/css">
	.st0{font-family:'Bauhaus93';}
	.st1{font-size:12px;}
	.st2{fill:none;}
</style>
<text transform="matrix(1 0 0 1 3.45 78.73)" class="st0 st1">MAYONE</text>
<line class="st2" x1="37.1" y1="74.9" x2="108.8" y2="4.2"/>
<path d="M34.2,31.8c1.4,2.7,2.2,5.3,2.7,8c0.5,2.7,0.7,5.3,0.7,8c0,2.7-0.2,5.3-0.7,8c-0.5,2.7-1.3,5.3-2.7,8h-0.4
	c-0.1-2.7-0.1-5.3-0.1-8l-0.1-8l0.1-8c0-2.7,0-5.3,0.1-8C33.8,31.8,34.2,31.8,34.2,31.8z"/>
<path d="M23,21.9c9,2.8,16.3,8.6,22.4,15.6c1.9,2.4,3.8,4.9,5.2,7.9l-0.3,0.3c-6.5-5.3-14.4-12-20.8-17.5c-2.3-2-4.6-4-6.8-6
	L23,21.9L23,21.9L23,21.9z"/>
<line class="st2" x1="14.4" y1="70.7" x2="86" y2="0"/>
<path d="M11.5,27.6c1.4,2.8,2.2,5.6,2.7,8.4c0.5,2.8,0.7,5.6,0.7,8.4c0,2.8-0.2,5.6-0.7,8.4c-0.5,2.8-1.3,5.6-2.7,8.4h-0.4
	C11,58.4,11,55.6,11,52.8l-0.1-8.4L11,36c0-2.8,0.1-5.6,0.1-8.4H11.5z"/>
<path d="M0.3,17.7c9.1,2.8,16.3,8.6,22.4,15.6c1.9,2.4,3.8,4.9,5.1,7.9l-0.3,0.3c-6.5-5.3-14.4-12-20.8-17.5c-2.3-2-4.6-4-6.8-6
	L0.3,17.7L0.3,17.7L0.3,17.7z"/>
</svg>
